<svg width="1074" height="1101" viewBox="0 0 1074 1101" fill="none" xmlns="http://www.w3.org/2000/svg">
<g opacity="0.2">
<path d="M537.14 537.739C504.302 536.582 477.487 541.19 477.246 548.031C477.005 554.872 503.43 561.356 536.267 562.513C569.104 563.67 595.92 559.062 596.161 552.22C596.402 545.379 569.977 538.896 537.14 537.739Z" stroke="url(#paint0_linear_89_1118)" stroke-miterlimit="10"/>
<path d="M536.89 537.281C501.412 536.73 472.562 542.017 472.452 549.09C472.342 556.163 501.014 562.343 536.492 562.894C571.97 563.445 600.82 558.158 600.929 551.085C601.039 544.013 572.368 537.832 536.89 537.281Z" stroke="url(#paint1_linear_89_1118)" stroke-miterlimit="10"/>
<path d="M536.481 536.829C498.145 536.965 467.089 542.995 467.114 550.297C467.14 557.599 498.239 563.409 536.575 563.273C574.911 563.137 605.967 557.107 605.941 549.805C605.915 542.503 574.817 536.693 536.481 536.829Z" stroke="url(#paint2_linear_89_1118)" stroke-miterlimit="10"/>
<path d="M536.578 536.458C495.289 537.366 461.952 544.204 462.117 551.732C462.283 559.26 495.888 564.626 537.177 563.718C578.466 562.811 611.803 555.972 611.638 548.444C611.472 540.916 577.867 535.55 536.578 536.458Z" stroke="url(#paint3_linear_89_1118)" stroke-miterlimit="10"/>
<path d="M536.109 535.96C491.762 537.732 456.063 545.453 456.372 553.205C456.682 560.957 492.884 565.805 537.23 564.033C581.577 562.261 617.276 554.54 616.966 546.788C616.657 539.035 580.455 534.188 536.109 535.96Z" stroke="url(#paint4_linear_89_1118)" stroke-miterlimit="10"/>
<path d="M535.861 535.7C488.25 538.438 450.025 547.121 450.484 555.094C450.942 563.067 489.91 567.311 537.521 564.573C585.132 561.835 623.357 553.152 622.898 545.179C622.44 537.206 583.472 532.962 535.861 535.7Z" stroke="url(#paint5_linear_89_1118)" stroke-miterlimit="10"/>
<path d="M535.809 535.076C484.841 538.877 444.026 548.691 444.645 556.996C445.265 565.301 487.084 568.952 538.052 565.151C589.02 561.35 629.836 551.536 629.216 543.23C628.597 534.925 586.777 531.275 535.809 535.076Z" stroke="url(#paint6_linear_89_1118)" stroke-miterlimit="10"/>
<path d="M535.473 534.524C480.94 539.506 437.371 550.545 438.16 559.179C438.949 567.814 483.797 570.774 538.33 565.791C592.863 560.809 636.431 549.77 635.642 541.135C634.853 532.501 590.006 529.541 535.473 534.524Z" stroke="url(#paint7_linear_89_1118)" stroke-miterlimit="10"/>
<path d="M534.973 533.952C476.897 540.217 430.6 552.56 431.567 561.521C432.534 570.482 480.398 572.668 538.474 566.402C596.55 560.137 642.847 547.794 641.881 538.833C640.914 529.872 593.05 527.687 534.973 533.952Z" stroke="url(#paint8_linear_89_1118)" stroke-miterlimit="10"/>
<path d="M534.734 533.095C472.915 540.763 423.734 554.505 424.886 563.789C426.037 573.073 477.085 574.384 538.904 566.716C600.724 559.049 649.904 545.306 648.753 536.022C647.601 526.738 596.553 525.427 534.734 533.095Z" stroke="url(#paint9_linear_89_1118)" stroke-miterlimit="10"/>
<path d="M534.049 532.455C468.287 541.671 416.081 557.02 417.443 566.738C418.805 576.455 473.219 576.861 538.981 567.645C604.742 558.428 656.949 543.079 655.587 533.362C654.225 523.645 599.811 523.239 534.049 532.455Z" stroke="url(#paint10_linear_89_1118)" stroke-miterlimit="10"/>
<path d="M533.97 531.645C464.306 542.513 409.116 559.547 410.698 569.692C412.281 579.837 470.037 579.252 539.701 568.384C609.364 557.517 664.555 540.483 662.972 530.338C661.39 520.193 603.633 520.778 533.97 531.645Z" stroke="url(#paint11_linear_89_1118)" stroke-miterlimit="10"/>
<path d="M533.64 531.057C459.883 543.73 401.563 562.572 403.379 573.141C405.195 583.71 466.459 582.004 540.217 569.33C613.974 556.657 672.293 537.815 670.477 527.246C668.661 516.677 607.397 518.383 533.64 531.057Z" stroke="url(#paint12_linear_89_1118)" stroke-miterlimit="10"/>
<path d="M532.964 530.283C455.031 544.902 393.525 565.661 395.586 576.65C397.648 587.639 462.496 584.697 540.429 570.078C618.362 555.459 679.868 534.699 677.807 523.71C675.745 512.721 610.897 515.664 532.964 530.283Z" stroke="url(#paint13_linear_89_1118)" stroke-miterlimit="10"/>
<path d="M532.442 529.161C450.153 545.887 385.342 568.782 387.682 580.298C390.023 591.814 458.629 587.59 540.918 570.864C623.207 554.138 688.018 531.244 685.678 519.728C683.337 508.212 614.731 512.435 532.442 529.161Z" stroke="url(#paint14_linear_89_1118)" stroke-miterlimit="10"/>
<path d="M531.963 528.065C445.369 547.031 377.327 572.253 379.988 584.4C382.648 596.548 455.003 591.021 541.598 572.056C628.192 553.091 696.234 527.869 693.573 515.721C690.913 503.573 618.557 509.1 531.963 528.065Z" stroke="url(#paint15_linear_89_1118)" stroke-miterlimit="10"/>
<path d="M531.142 526.947C440.174 548.312 368.861 575.987 371.861 588.76C374.861 601.534 451.038 594.569 542.006 573.203C632.974 551.838 704.287 524.163 701.287 511.39C698.287 498.617 622.11 505.582 531.142 526.947Z" stroke="url(#paint16_linear_89_1118)" stroke-miterlimit="10"/>
<path d="M530.495 525.85C435.1 549.776 360.49 580.028 363.849 593.419C367.208 606.809 447.263 598.268 542.657 574.342C638.052 550.415 712.662 520.163 709.303 506.773C705.945 493.382 625.889 501.923 530.495 525.85Z" stroke="url(#paint17_linear_89_1118)" stroke-miterlimit="10"/>
<path d="M529.999 524.463C430.02 551.146 352.025 584.215 355.79 598.324C359.556 612.433 443.657 602.24 543.635 575.557C643.614 548.874 721.609 515.806 717.844 501.696C714.078 487.587 629.977 497.78 529.999 524.463Z" stroke="url(#paint18_linear_89_1118)" stroke-miterlimit="10"/>
<path d="M529.098 523.197C424.704 552.766 343.478 588.75 347.676 603.569C351.873 618.388 439.904 606.431 544.298 576.863C648.692 547.294 729.918 511.31 725.72 496.491C721.523 481.672 633.492 493.628 529.098 523.197Z" stroke="url(#paint19_linear_89_1118)" stroke-miterlimit="10"/>
<path d="M528.17 521.697C419.217 554.371 334.719 593.616 339.438 609.352C344.158 625.089 436.307 611.358 545.26 578.683C654.213 546.009 738.711 506.764 733.992 491.027C729.273 475.291 637.123 489.022 528.17 521.697Z" stroke="url(#paint20_linear_89_1118)" stroke-miterlimit="10"/>
<path d="M527.24 520.129C413.8 556.065 326.084 598.599 331.322 615.131C336.559 631.663 432.766 615.933 546.206 579.997C659.646 544.06 747.362 501.526 742.125 484.994C736.888 468.462 640.681 484.192 527.24 520.129Z" stroke="url(#paint21_linear_89_1118)" stroke-miterlimit="10"/>
<path d="M526.116 518.551C408.279 557.929 317.503 604.061 323.36 621.591C329.218 639.12 429.493 621.408 547.329 582.031C665.166 542.653 755.943 496.52 750.085 478.991C744.227 461.461 643.953 479.173 526.116 518.551Z" stroke="url(#paint22_linear_89_1118)" stroke-miterlimit="10"/>
<path d="M524.852 516.27C402.592 559.285 308.79 609.25 315.341 627.869C321.892 646.488 426.314 626.71 548.575 583.695C670.835 540.679 764.637 490.714 758.086 472.095C751.535 453.476 647.113 473.254 524.852 516.27Z" stroke="url(#paint23_linear_89_1118)" stroke-miterlimit="10"/>
<path d="M523.668 514.435C397.203 561.243 300.591 615.148 307.877 634.834C315.164 654.521 423.59 632.534 550.055 585.726C676.519 538.917 773.132 485.013 765.846 465.326C758.559 445.64 650.132 467.626 523.668 514.435Z" stroke="url(#paint24_linear_89_1118)" stroke-miterlimit="10"/>
<path d="M521.913 512.376C391.238 563.218 291.912 621.414 300.061 642.36C308.211 663.307 420.75 639.071 551.425 588.229C682.1 537.387 781.427 479.191 773.277 458.245C765.127 437.299 652.588 461.534 521.913 512.376Z" stroke="url(#paint25_linear_89_1118)" stroke-miterlimit="10"/>
<path d="M520.233 509.824C385.573 564.839 283.791 627.503 292.895 649.788C302 672.073 418.544 645.539 553.203 590.524C687.862 535.509 789.645 472.845 780.54 450.56C771.436 428.275 654.892 454.809 520.233 509.824Z" stroke="url(#paint26_linear_89_1118)" stroke-miterlimit="10"/>
<path d="M518.353 506.916C379.84 566.306 275.826 633.746 286.032 657.548C296.237 681.35 416.797 652.501 555.311 593.111C693.824 533.721 797.838 466.281 787.633 442.478C777.427 418.676 656.867 447.526 518.353 506.916Z" stroke="url(#paint27_linear_89_1118)" stroke-miterlimit="10"/>
<path d="M516.207 504.357C374.191 568.255 268.286 640.549 279.661 665.831C291.037 691.113 415.385 659.809 557.4 595.911C699.416 532.013 805.322 459.719 793.946 434.437C782.571 409.155 658.223 440.459 516.207 504.357Z" stroke="url(#paint28_linear_89_1118)" stroke-miterlimit="10"/>
<path d="M513.787 501.269C368.424 569.886 260.926 647.423 273.686 674.453C286.445 701.483 414.628 667.77 559.992 599.154C705.355 530.537 812.852 453 800.093 425.97C787.334 398.94 659.15 432.653 513.787 501.269Z" stroke="url(#paint29_linear_89_1118)" stroke-miterlimit="10"/>
<path d="M510.744 497.846C362.291 571.361 253.56 654.413 267.889 683.347C282.217 712.281 414.178 676.141 562.632 602.626C711.086 529.111 819.816 446.059 805.488 417.125C791.159 388.191 659.198 424.331 510.744 497.846Z" stroke="url(#paint30_linear_89_1118)" stroke-miterlimit="10"/>
<path d="M507.532 494.266C356.272 572.853 246.658 661.594 262.701 692.473C278.745 723.353 414.371 684.679 565.631 606.092C716.891 527.505 826.506 438.764 810.462 407.884C794.419 377.005 658.792 415.679 507.532 494.266Z" stroke="url(#paint31_linear_89_1118)" stroke-miterlimit="10"/>
<path d="M503.883 490.137C350.322 573.868 240.493 668.623 258.572 701.78C276.65 734.936 415.792 693.937 569.352 610.207C722.913 526.476 832.743 431.72 814.664 398.564C796.585 365.408 657.444 406.406 503.883 490.137Z" stroke="url(#paint32_linear_89_1118)" stroke-miterlimit="10"/>
<path d="M499.917 485.855C344.363 574.901 234.712 675.824 255.004 711.272C275.296 746.72 417.847 703.269 573.401 614.222C728.955 525.175 838.607 424.253 818.315 388.805C798.023 353.357 655.471 396.808 499.917 485.855Z" stroke="url(#paint33_linear_89_1118)" stroke-miterlimit="10"/>
<path d="M495.474 481.37C338.368 575.864 229.552 683.295 252.426 721.325C275.3 759.355 421.202 713.582 578.307 619.088C735.412 524.595 844.229 417.163 821.355 379.133C798.481 341.103 652.579 386.876 495.474 481.37Z" stroke="url(#paint34_linear_89_1118)" stroke-miterlimit="10"/>
<path d="M489.991 475.924C331.747 575.971 224.421 690.22 250.271 731.106C276.121 771.993 425.358 724.035 583.602 623.989C741.845 523.942 849.171 409.693 823.322 368.806C797.472 327.92 648.234 375.878 489.991 475.924Z" stroke="url(#paint35_linear_89_1118)" stroke-miterlimit="10"/>
<path d="M483.808 470.538C324.984 576.2 219.899 697.432 249.095 741.318C278.291 785.203 430.712 735.124 589.536 629.462C748.361 523.8 853.445 402.568 824.249 358.682C795.053 314.797 642.632 364.876 483.808 470.538Z" stroke="url(#paint36_linear_89_1118)" stroke-miterlimit="10"/>
<path d="M476.74 464.631C317.806 576.005 215.769 704.543 248.835 751.728C281.9 798.913 437.546 746.878 596.48 635.503C755.414 524.129 857.451 395.591 824.386 348.406C791.32 301.221 635.674 353.257 476.74 464.631Z" stroke="url(#paint37_linear_89_1118)" stroke-miterlimit="10"/>
<path d="M469.049 458.495C310.596 575.595 212.486 711.581 249.914 762.227C287.343 812.874 446.137 759.002 604.59 641.902C763.044 524.802 861.154 388.816 823.725 338.17C786.297 287.523 627.503 341.395 469.049 458.495Z" stroke="url(#paint38_linear_89_1118)" stroke-miterlimit="10"/>
<path d="M459.884 451.343C302.479 574.155 209.352 717.901 251.88 772.408C294.408 826.915 456.486 771.543 613.891 648.731C771.296 525.919 864.423 382.174 821.895 327.666C779.367 273.159 617.289 328.531 459.884 451.343Z" stroke="url(#paint39_linear_89_1118)" stroke-miterlimit="10"/>
<path d="M449.415 444.22C293.654 572.731 206.525 724.351 254.807 782.871C303.09 841.392 468.5 784.653 624.262 656.142C780.023 527.63 867.152 376.011 818.87 317.49C770.587 258.969 605.177 315.708 449.415 444.22Z" stroke="url(#paint40_linear_89_1118)" stroke-miterlimit="10"/>
<path d="M437.353 436.187C283.824 570.321 203.906 730.041 258.851 792.931C313.795 855.82 482.797 798.065 636.327 663.93C789.856 529.795 869.775 370.075 814.83 307.186C759.885 244.296 590.883 302.052 437.353 436.187Z" stroke="url(#paint41_linear_89_1118)" stroke-miterlimit="10"/>
<path d="M423.444 427.836C272.741 567.508 201.308 735.475 263.892 803.003C326.477 870.53 499.38 812.046 650.082 672.375C800.785 532.704 872.218 364.736 809.634 297.209C747.049 229.681 574.146 288.165 423.444 427.836Z" stroke="url(#paint42_linear_89_1118)" stroke-miterlimit="10"/>
<path d="M407.775 419.096C260.42 564.24 198.791 740.609 270.122 813.027C341.453 885.444 518.734 826.488 666.089 681.344C813.444 536.199 875.073 359.83 803.742 287.412C732.41 214.995 555.13 273.951 407.775 419.096Z" stroke="url(#paint43_linear_89_1118)" stroke-miterlimit="10"/>
<path d="M389.496 409.678C246.043 560.114 195.681 744.936 277.009 822.489C358.337 900.042 540.558 840.958 684.011 690.522C827.464 540.085 877.826 355.264 796.498 277.711C715.17 200.158 532.949 259.242 389.496 409.678Z" stroke="url(#paint44_linear_89_1118)" stroke-miterlimit="10"/>
<path d="M368.902 400.092C229.925 555.591 192.428 748.826 285.149 831.695C377.869 914.564 565.697 855.686 704.673 700.187C843.65 544.688 881.147 351.453 788.427 268.584C695.706 185.715 507.878 244.594 368.902 400.092Z" stroke="url(#paint45_linear_89_1118)" stroke-miterlimit="10"/>
<path d="M345.243 389.913C211.124 550.358 188.188 752.137 294.013 840.598C399.839 929.059 594.352 870.705 728.471 710.26C862.59 549.814 885.526 348.036 779.7 259.574C673.875 171.113 479.361 229.468 345.243 389.913Z" stroke="url(#paint46_linear_89_1118)" stroke-miterlimit="10"/>
<path d="M318.279 379.858C189.445 545.026 182.799 755.203 303.436 849.303C424.073 943.403 626.31 885.791 755.144 720.624C883.979 555.456 890.624 345.279 769.987 251.179C649.35 157.079 447.114 214.691 318.279 379.858Z" stroke="url(#paint47_linear_89_1118)" stroke-miterlimit="10"/>
<path d="M288.076 369.451C164.931 539.025 176.528 757.41 313.978 857.227C451.429 957.043 662.684 900.493 785.829 730.918C908.974 561.343 897.377 342.958 759.926 243.142C622.475 143.325 411.221 199.876 288.076 369.451Z" stroke="url(#paint48_linear_89_1118)" stroke-miterlimit="10"/>
<path d="M253.379 359.13C136.115 532.982 167.88 759.461 324.328 864.986C480.775 970.511 702.663 915.121 819.927 741.269C937.191 567.417 905.426 340.937 748.978 235.412C592.53 129.887 370.643 185.278 253.379 359.13Z" stroke="url(#paint49_linear_89_1118)" stroke-miterlimit="10"/>
<path d="M726.587 221.281C544.985 116.433 312.773 178.654 207.925 360.256C103.077 541.858 165.298 774.071 346.9 878.918C528.501 983.766 760.715 921.545 865.562 739.943C970.41 558.342 908.189 326.128 726.587 221.281Z" stroke="url(#paint50_linear_89_1118)" stroke-miterlimit="10"/>
</g>
<defs>
<linearGradient id="paint0_linear_89_1118" x1="536.267" y1="562.513" x2="537.14" y2="537.739" gradientUnits="userSpaceOnUse">
<stop stop-color="#634A4A"/>
<stop offset="1" stop-color="#2F2929"/>
</linearGradient>
<linearGradient id="paint1_linear_89_1118" x1="536.492" y1="562.894" x2="536.89" y2="537.281" gradientUnits="userSpaceOnUse">
<stop stop-color="#634A4A"/>
<stop offset="1" stop-color="#2F2929"/>
</linearGradient>
<linearGradient id="paint2_linear_89_1118" x1="536.575" y1="563.273" x2="536.481" y2="536.829" gradientUnits="userSpaceOnUse">
<stop stop-color="#634A4A"/>
<stop offset="1" stop-color="#2F2929"/>
</linearGradient>
<linearGradient id="paint3_linear_89_1118" x1="537.177" y1="563.718" x2="536.578" y2="536.458" gradientUnits="userSpaceOnUse">
<stop stop-color="#634A4A"/>
<stop offset="1" stop-color="#2F2929"/>
</linearGradient>
<linearGradient id="paint4_linear_89_1118" x1="537.23" y1="564.033" x2="536.109" y2="535.96" gradientUnits="userSpaceOnUse">
<stop stop-color="#634A4A"/>
<stop offset="1" stop-color="#2F2929"/>
</linearGradient>
<linearGradient id="paint5_linear_89_1118" x1="537.521" y1="564.573" x2="535.861" y2="535.7" gradientUnits="userSpaceOnUse">
<stop stop-color="#634A4A"/>
<stop offset="1" stop-color="#2F2929"/>
</linearGradient>
<linearGradient id="paint6_linear_89_1118" x1="538.052" y1="565.151" x2="535.809" y2="535.076" gradientUnits="userSpaceOnUse">
<stop stop-color="#634A4A"/>
<stop offset="1" stop-color="#2F2929"/>
</linearGradient>
<linearGradient id="paint7_linear_89_1118" x1="538.33" y1="565.791" x2="535.473" y2="534.524" gradientUnits="userSpaceOnUse">
<stop stop-color="#634A4A"/>
<stop offset="1" stop-color="#2F2929"/>
</linearGradient>
<linearGradient id="paint8_linear_89_1118" x1="538.474" y1="566.402" x2="534.973" y2="533.952" gradientUnits="userSpaceOnUse">
<stop stop-color="#634A4A"/>
<stop offset="1" stop-color="#2F2929"/>
</linearGradient>
<linearGradient id="paint9_linear_89_1118" x1="538.904" y1="566.716" x2="534.734" y2="533.095" gradientUnits="userSpaceOnUse">
<stop stop-color="#634A4A"/>
<stop offset="1" stop-color="#2F2929"/>
</linearGradient>
<linearGradient id="paint10_linear_89_1118" x1="538.981" y1="567.645" x2="534.049" y2="532.455" gradientUnits="userSpaceOnUse">
<stop stop-color="#634A4A"/>
<stop offset="1" stop-color="#2F2929"/>
</linearGradient>
<linearGradient id="paint11_linear_89_1118" x1="539.701" y1="568.384" x2="533.97" y2="531.645" gradientUnits="userSpaceOnUse">
<stop stop-color="#634A4A"/>
<stop offset="1" stop-color="#2F2929"/>
</linearGradient>
<linearGradient id="paint12_linear_89_1118" x1="540.217" y1="569.33" x2="533.64" y2="531.057" gradientUnits="userSpaceOnUse">
<stop stop-color="#634A4A"/>
<stop offset="1" stop-color="#2F2929"/>
</linearGradient>
<linearGradient id="paint13_linear_89_1118" x1="540.429" y1="570.078" x2="532.964" y2="530.283" gradientUnits="userSpaceOnUse">
<stop stop-color="#634A4A"/>
<stop offset="1" stop-color="#2F2929"/>
</linearGradient>
<linearGradient id="paint14_linear_89_1118" x1="540.918" y1="570.864" x2="532.442" y2="529.161" gradientUnits="userSpaceOnUse">
<stop stop-color="#634A4A"/>
<stop offset="1" stop-color="#2F2929"/>
</linearGradient>
<linearGradient id="paint15_linear_89_1118" x1="541.598" y1="572.056" x2="531.963" y2="528.065" gradientUnits="userSpaceOnUse">
<stop stop-color="#634A4A"/>
<stop offset="1" stop-color="#2F2929"/>
</linearGradient>
<linearGradient id="paint16_linear_89_1118" x1="542.006" y1="573.203" x2="531.142" y2="526.947" gradientUnits="userSpaceOnUse">
<stop stop-color="#634A4A"/>
<stop offset="1" stop-color="#2F2929"/>
</linearGradient>
<linearGradient id="paint17_linear_89_1118" x1="542.658" y1="574.342" x2="530.495" y2="525.85" gradientUnits="userSpaceOnUse">
<stop stop-color="#634A4A"/>
<stop offset="1" stop-color="#2F2929"/>
</linearGradient>
<linearGradient id="paint18_linear_89_1118" x1="543.635" y1="575.557" x2="529.999" y2="524.463" gradientUnits="userSpaceOnUse">
<stop stop-color="#634A4A"/>
<stop offset="1" stop-color="#2F2929"/>
</linearGradient>
<linearGradient id="paint19_linear_89_1118" x1="544.298" y1="576.863" x2="529.098" y2="523.197" gradientUnits="userSpaceOnUse">
<stop stop-color="#634A4A"/>
<stop offset="1" stop-color="#2F2929"/>
</linearGradient>
<linearGradient id="paint20_linear_89_1118" x1="545.26" y1="578.683" x2="528.17" y2="521.696" gradientUnits="userSpaceOnUse">
<stop stop-color="#634A4A"/>
<stop offset="1" stop-color="#2F2929"/>
</linearGradient>
<linearGradient id="paint21_linear_89_1118" x1="546.206" y1="579.997" x2="527.24" y2="520.129" gradientUnits="userSpaceOnUse">
<stop stop-color="#634A4A"/>
<stop offset="1" stop-color="#2F2929"/>
</linearGradient>
<linearGradient id="paint22_linear_89_1118" x1="547.329" y1="582.031" x2="526.116" y2="518.551" gradientUnits="userSpaceOnUse">
<stop stop-color="#634A4A"/>
<stop offset="1" stop-color="#2F2929"/>
</linearGradient>
<linearGradient id="paint23_linear_89_1118" x1="548.575" y1="583.695" x2="524.852" y2="516.27" gradientUnits="userSpaceOnUse">
<stop stop-color="#634A4A"/>
<stop offset="1" stop-color="#2F2929"/>
</linearGradient>
<linearGradient id="paint24_linear_89_1118" x1="550.055" y1="585.726" x2="523.668" y2="514.435" gradientUnits="userSpaceOnUse">
<stop stop-color="#634A4A"/>
<stop offset="1" stop-color="#2F2929"/>
</linearGradient>
<linearGradient id="paint25_linear_89_1118" x1="551.425" y1="588.229" x2="521.913" y2="512.376" gradientUnits="userSpaceOnUse">
<stop stop-color="#634A4A"/>
<stop offset="1" stop-color="#2F2929"/>
</linearGradient>
<linearGradient id="paint26_linear_89_1118" x1="553.203" y1="590.524" x2="520.233" y2="509.824" gradientUnits="userSpaceOnUse">
<stop stop-color="#634A4A"/>
<stop offset="1" stop-color="#2F2929"/>
</linearGradient>
<linearGradient id="paint27_linear_89_1118" x1="555.311" y1="593.111" x2="518.353" y2="506.916" gradientUnits="userSpaceOnUse">
<stop stop-color="#634A4A"/>
<stop offset="1" stop-color="#2F2929"/>
</linearGradient>
<linearGradient id="paint28_linear_89_1118" x1="557.4" y1="595.911" x2="516.207" y2="504.357" gradientUnits="userSpaceOnUse">
<stop stop-color="#634A4A"/>
<stop offset="1" stop-color="#2F2929"/>
</linearGradient>
<linearGradient id="paint29_linear_89_1118" x1="559.992" y1="599.154" x2="513.787" y2="501.269" gradientUnits="userSpaceOnUse">
<stop stop-color="#634A4A"/>
<stop offset="1" stop-color="#2F2929"/>
</linearGradient>
<linearGradient id="paint30_linear_89_1118" x1="562.632" y1="602.626" x2="510.744" y2="497.846" gradientUnits="userSpaceOnUse">
<stop stop-color="#634A4A"/>
<stop offset="1" stop-color="#2F2929"/>
</linearGradient>
<linearGradient id="paint31_linear_89_1118" x1="565.631" y1="606.092" x2="507.532" y2="494.266" gradientUnits="userSpaceOnUse">
<stop stop-color="#634A4A"/>
<stop offset="1" stop-color="#2F2929"/>
</linearGradient>
<linearGradient id="paint32_linear_89_1118" x1="569.352" y1="610.206" x2="503.883" y2="490.137" gradientUnits="userSpaceOnUse">
<stop stop-color="#634A4A"/>
<stop offset="1" stop-color="#2F2929"/>
</linearGradient>
<linearGradient id="paint33_linear_89_1118" x1="573.401" y1="614.222" x2="499.917" y2="485.855" gradientUnits="userSpaceOnUse">
<stop stop-color="#634A4A"/>
<stop offset="1" stop-color="#2F2929"/>
</linearGradient>
<linearGradient id="paint34_linear_89_1118" x1="578.307" y1="619.088" x2="495.474" y2="481.37" gradientUnits="userSpaceOnUse">
<stop stop-color="#634A4A"/>
<stop offset="1" stop-color="#2F2929"/>
</linearGradient>
<linearGradient id="paint35_linear_89_1118" x1="583.602" y1="623.989" x2="489.991" y2="475.924" gradientUnits="userSpaceOnUse">
<stop stop-color="#634A4A"/>
<stop offset="1" stop-color="#2F2929"/>
</linearGradient>
<linearGradient id="paint36_linear_89_1118" x1="589.536" y1="629.462" x2="483.808" y2="470.538" gradientUnits="userSpaceOnUse">
<stop stop-color="#634A4A"/>
<stop offset="1" stop-color="#2F2929"/>
</linearGradient>
<linearGradient id="paint37_linear_89_1118" x1="596.48" y1="635.503" x2="476.74" y2="464.631" gradientUnits="userSpaceOnUse">
<stop stop-color="#634A4A"/>
<stop offset="1" stop-color="#2F2929"/>
</linearGradient>
<linearGradient id="paint38_linear_89_1118" x1="604.59" y1="641.902" x2="469.049" y2="458.495" gradientUnits="userSpaceOnUse">
<stop stop-color="#634A4A"/>
<stop offset="1" stop-color="#2F2929"/>
</linearGradient>
<linearGradient id="paint39_linear_89_1118" x1="613.891" y1="648.731" x2="459.884" y2="451.343" gradientUnits="userSpaceOnUse">
<stop stop-color="#634A4A"/>
<stop offset="1" stop-color="#2F2929"/>
</linearGradient>
<linearGradient id="paint40_linear_89_1118" x1="624.262" y1="656.142" x2="449.415" y2="444.22" gradientUnits="userSpaceOnUse">
<stop stop-color="#634A4A"/>
<stop offset="1" stop-color="#2F2929"/>
</linearGradient>
<linearGradient id="paint41_linear_89_1118" x1="636.327" y1="663.93" x2="437.354" y2="436.187" gradientUnits="userSpaceOnUse">
<stop stop-color="#634A4A"/>
<stop offset="1" stop-color="#2F2929"/>
</linearGradient>
<linearGradient id="paint42_linear_89_1118" x1="650.082" y1="672.375" x2="423.444" y2="427.836" gradientUnits="userSpaceOnUse">
<stop stop-color="#634A4A"/>
<stop offset="1" stop-color="#2F2929"/>
</linearGradient>
<linearGradient id="paint43_linear_89_1118" x1="666.089" y1="681.343" x2="407.775" y2="419.096" gradientUnits="userSpaceOnUse">
<stop stop-color="#634A4A"/>
<stop offset="1" stop-color="#2F2929"/>
</linearGradient>
<linearGradient id="paint44_linear_89_1118" x1="684.011" y1="690.522" x2="389.496" y2="409.678" gradientUnits="userSpaceOnUse">
<stop stop-color="#634A4A"/>
<stop offset="1" stop-color="#2F2929"/>
</linearGradient>
<linearGradient id="paint45_linear_89_1118" x1="704.673" y1="700.187" x2="368.902" y2="400.092" gradientUnits="userSpaceOnUse">
<stop stop-color="#634A4A"/>
<stop offset="1" stop-color="#2F2929"/>
</linearGradient>
<linearGradient id="paint46_linear_89_1118" x1="728.471" y1="710.26" x2="345.243" y2="389.913" gradientUnits="userSpaceOnUse">
<stop stop-color="#634A4A"/>
<stop offset="1" stop-color="#2F2929"/>
</linearGradient>
<linearGradient id="paint47_linear_89_1118" x1="755.144" y1="720.624" x2="318.279" y2="379.858" gradientUnits="userSpaceOnUse">
<stop stop-color="#634A4A"/>
<stop offset="1" stop-color="#2F2929"/>
</linearGradient>
<linearGradient id="paint48_linear_89_1118" x1="785.829" y1="730.918" x2="288.076" y2="369.45" gradientUnits="userSpaceOnUse">
<stop stop-color="#634A4A"/>
<stop offset="1" stop-color="#2F2929"/>
</linearGradient>
<linearGradient id="paint49_linear_89_1118" x1="819.927" y1="741.269" x2="253.379" y2="359.13" gradientUnits="userSpaceOnUse">
<stop stop-color="#634A4A"/>
<stop offset="1" stop-color="#2F2929"/>
</linearGradient>
<linearGradient id="paint50_linear_89_1118" x1="346.9" y1="878.918" x2="726.587" y2="221.281" gradientUnits="userSpaceOnUse">
<stop stop-color="#634A4A"/>
<stop offset="1" stop-color="#2F2929"/>
</linearGradient>
</defs>
</svg>
