<svg width="420" height="419" viewBox="0 0 420 419" fill="none" xmlns="http://www.w3.org/2000/svg">
<g clip-path="url(#clip0_2894_129521)">
<circle cx="210.45" cy="209.45" r="207" transform="rotate(120 210.45 209.45)" stroke="url(#paint0_linear_2894_129521)"/>
<circle cx="210.632" cy="210.133" r="198.5" transform="rotate(120 210.632 210.133)" stroke="url(#paint1_linear_2894_129521)"/>
<circle cx="210.449" cy="209.45" r="191" transform="rotate(120 210.449 209.45)" stroke="url(#paint2_linear_2894_129521)"/>
<circle cx="210.632" cy="210.133" r="183.5" transform="rotate(120 210.632 210.133)" stroke="url(#paint3_linear_2894_129521)"/>
<path fill-rule="evenodd" clip-rule="evenodd" d="M386.949 208.95C386.949 305.857 308.569 384.95 210.949 384.95C113.33 384.95 34.9492 306.57 34.9492 208.95C34.9492 111.331 113.33 32.9502 210.949 32.9502C308.569 32.9502 386.949 111.331 386.949 208.95ZM161.783 278.78H127.581C120.455 278.78 116.893 278.78 114.755 277.355V277.355C110.065 274.228 110.589 267.272 113.204 262.278C113.835 261.073 114.586 259.704 115.467 258.116L199.548 109.906C203.111 103.493 205.249 100.642 207.386 99.2174C209.524 97.7923 213.087 97.7923 215.225 99.2174C217.362 100.642 219.5 103.493 223.063 109.906L240.164 139.833C243.727 146.246 245.864 149.808 246.577 153.371C247.289 157.647 247.289 161.209 246.577 165.485C245.864 169.047 243.727 172.61 240.164 179.736L195.986 258.116C192.423 265.242 190.285 268.092 187.435 270.942V270.942C181.513 276.864 172.722 278.756 164.347 278.778C163.537 278.78 162.684 278.78 161.783 278.78ZM248.002 278.78H297.168C304.293 278.78 307.856 278.78 309.994 277.355V277.355C314.684 274.228 314.184 267.253 311.624 262.23C310.977 260.962 310.2 259.586 309.281 258.116L285.226 216.374C285.114 216.178 285.055 215.957 285.055 215.732V215.732C285.055 215.491 284.985 215.253 284.858 215.048C281.439 209.557 280.027 206.786 277.929 205.387C275.791 203.962 272.229 203.962 270.091 205.387C267.953 206.813 265.816 209.663 262.253 216.076L236.601 258.116C234.981 261.032 233.656 263.211 232.759 264.989C231.118 268.243 231.039 272.14 233.332 274.973V274.973C234.658 276.612 236.706 278.177 238.793 278.484C240.81 278.78 243.781 278.78 248.002 278.78Z" fill="black" fill-opacity="0.1" stroke="url(#paint4_linear_2894_129521)"/>
<path fill-rule="evenodd" clip-rule="evenodd" d="M160.809 279.95H126.236C119.033 279.95 115.432 279.95 113.271 278.506V278.506C108.525 275.336 109.059 268.293 111.702 263.234C112.339 262.013 113.099 260.625 113.991 259.015L198.984 108.861C202.586 102.364 204.746 99.4768 206.907 98.033C209.068 96.5892 212.669 96.5892 214.83 98.033C216.991 99.4768 219.152 102.364 222.753 108.861L240.04 139.181C243.642 145.678 245.802 149.287 246.523 152.897C247.243 157.228 247.243 160.838 246.523 165.169C245.802 168.779 243.642 172.388 240.04 179.607L195.383 259.015C191.781 266.234 189.621 269.122 186.739 272.009V272.009C180.756 278.006 171.865 279.926 163.393 279.948C162.577 279.95 161.717 279.95 160.809 279.95ZM247.963 279.95H297.663C304.865 279.95 308.467 279.95 310.628 278.506V278.506C315.373 275.336 314.864 268.274 312.277 263.186C311.623 261.901 310.837 260.506 309.907 259.015L285.591 216.726C285.478 216.528 285.418 216.303 285.418 216.075V216.075C285.418 215.831 285.348 215.59 285.219 215.382C281.763 209.82 280.336 207.012 278.215 205.595C276.054 204.151 272.453 204.151 270.292 205.595C268.131 207.039 265.97 209.927 262.369 216.424L236.439 259.015C234.799 261.973 233.458 264.183 232.552 265.985C230.895 269.278 230.817 273.22 233.131 276.089V276.089C234.473 277.754 236.547 279.341 238.663 279.651C240.702 279.95 243.702 279.95 247.963 279.95Z" fill="url(#paint5_linear_2894_129521)" stroke="black" stroke-opacity="0.2" stroke-width="2"/>
</g>
<defs>
<linearGradient id="paint0_linear_2894_129521" x1="210.45" y1="1.95026" x2="210.45" y2="416.95" gradientUnits="userSpaceOnUse">
<stop stop-color="#5C191A" stop-opacity="0"/>
<stop offset="0.484921" stop-color="#5C191A"/>
<stop offset="1" stop-color="#5C191A" stop-opacity="0.32"/>
</linearGradient>
<linearGradient id="paint1_linear_2894_129521" x1="210.632" y1="11.1332" x2="210.632" y2="409.133" gradientUnits="userSpaceOnUse">
<stop stop-color="#5C191A" stop-opacity="0"/>
<stop offset="0.484921" stop-color="#5C191A"/>
<stop offset="1" stop-color="#5C191A" stop-opacity="0.32"/>
</linearGradient>
<linearGradient id="paint2_linear_2894_129521" x1="210.449" y1="17.9503" x2="210.449" y2="400.95" gradientUnits="userSpaceOnUse">
<stop stop-color="#5C191A" stop-opacity="0"/>
<stop offset="0.484921" stop-color="#5C191A"/>
<stop offset="1" stop-color="#5C191A" stop-opacity="0.32"/>
</linearGradient>
<linearGradient id="paint3_linear_2894_129521" x1="210.632" y1="26.1333" x2="210.632" y2="394.133" gradientUnits="userSpaceOnUse">
<stop stop-color="#FF393C" stop-opacity="0"/>
<stop offset="0.484921" stop-color="#5C191A"/>
<stop offset="1" stop-color="#602829" stop-opacity="0.32"/>
</linearGradient>
<linearGradient id="paint4_linear_2894_129521" x1="210.949" y1="32.9502" x2="210.949" y2="384.95" gradientUnits="userSpaceOnUse">
<stop stop-color="#E74142" stop-opacity="0.34"/>
<stop offset="0.489583" stop-color="#FF4548" stop-opacity="0.520833"/>
<stop offset="1" stop-color="white" stop-opacity="0"/>
</linearGradient>
<linearGradient id="paint5_linear_2894_129521" x1="211.949" y1="96.9502" x2="211.949" y2="279.95" gradientUnits="userSpaceOnUse">
<stop stop-color="#B93434"/>
<stop offset="1" stop-color="#B93434" stop-opacity="0"/>
</linearGradient>
<clipPath id="clip0_2894_129521">
<rect width="420" height="419" fill="white"/>
</clipPath>
</defs>
</svg>
